<svg xmlns="http://www.w3.org/2000/svg" width="53" height="46" viewBox="0 0 53 46" fill="none">
  <rect x="7" y="9" width="39" height="28" fill="white"></rect>
  <path
    fill-rule="evenodd"
    clip-rule="evenodd"
    d="M40.5782 13.4587C39.5826 13.6215 38.5525 13.7691 37.5159 13.8972C37.2662 13.9283 37.0771 14.1433 37.0771 14.3973V22.4021C37.0771 22.6016 37.2389 22.7635 37.4385 22.7635H40.688C40.8876 22.7635 41.0495 22.6016 41.0495 22.4021V13.8593C41.0495 13.6134 40.8112 13.4224 40.5782 13.4587ZM43.3982 34.0207C43.3982 34.0615 43.3903 34.0999 43.3863 34.1398C43.383 34.1728 43.3839 34.2055 43.3775 34.239C43.377 34.2414 43.3761 34.2435 43.3756 34.2459C43.3289 34.4853 43.2097 34.6982 43.0415 34.8617C43.0002 34.9025 42.9546 34.9381 42.9076 34.9721C42.7588 35.0791 42.5846 35.1498 42.3953 35.1778H42.395C42.3416 35.1856 42.2885 35.1937 42.2329 35.1942C42.2299 35.1942 42.227 35.1951 42.2237 35.1951C42.1772 35.1951 42.1328 35.1866 42.0875 35.1814C42.0599 35.1783 42.0329 35.1795 42.0054 35.174C42.0006 35.1733 41.9959 35.1726 41.9911 35.1716C41.9892 35.1712 41.9871 35.1709 41.985 35.1705C40.3867 34.8684 38.7468 34.6199 37.0771 34.416C36.3006 34.3214 35.5186 34.235 34.7282 34.1614C33.9182 34.0862 33.1016 34.0214 32.2781 33.9687C31.5012 33.9191 30.7173 33.8818 29.9292 33.8522C28.7804 33.8092 27.6225 33.7831 26.4528 33.7831C25.1803 33.7831 23.9216 33.8107 22.6791 33.8629C21.889 33.8961 21.1057 33.9393 20.3301 33.9927C18.4722 34.1206 16.6625 34.3083 14.9078 34.5454V34.5458C14.8848 34.5487 14.8613 34.5504 14.8375 34.5504C14.544 34.5504 14.3059 34.3123 14.3059 34.0188V32.7029C14.3059 32.4323 14.5079 32.2093 14.7692 32.1756V32.1753C16.5656 31.9402 18.4202 31.7555 20.3301 31.6314C21.105 31.5811 21.8879 31.54 22.6791 31.5087C23.9188 31.4598 25.1773 31.4342 26.4528 31.4342C27.6221 31.4342 28.7797 31.4603 29.9292 31.5023C30.7171 31.531 31.5007 31.568 32.2781 31.6165C33.1007 31.668 33.9184 31.7275 34.7282 31.8006C35.5184 31.872 36.3001 31.9568 37.0771 32.0491C38.2786 32.1915 39.4633 32.359 40.6306 32.551H40.6304C40.6491 32.5538 40.6683 32.5555 40.688 32.5555C40.8876 32.5555 41.0495 32.3937 41.0495 32.1941V25.4738C41.0495 25.2743 40.8876 25.1124 40.688 25.1124H37.4385C37.2389 25.1124 37.0771 25.2743 37.0771 25.4738L37.0768 28.3928C37.0768 28.6864 36.8388 28.9244 36.5453 28.9244C36.527 28.9244 36.5087 28.9234 36.4909 28.9215C36.0647 28.8745 35.6368 28.8306 35.2068 28.7896C34.9382 28.7628 34.7284 28.5361 34.7284 28.2606L34.7282 14.3973C34.7282 12.9608 35.802 11.7436 37.2266 11.5661C38.2311 11.442 39.2314 11.2987 40.1999 11.1406C40.3439 11.1169 40.4937 11.1048 40.6434 11.1048C42.1625 11.1048 43.3982 12.3405 43.3982 13.8593V34.0207ZM19.6011 14.7874C19.6187 14.7449 19.6282 14.6986 19.6282 14.6498C19.6282 14.4592 19.4806 14.303 19.2936 14.2893V14.289C18.401 14.2202 17.5213 14.1386 16.6549 14.0453C16.0158 13.9767 15.3841 13.9015 14.7602 13.8199H14.7604C14.5034 13.7824 14.3059 13.5612 14.3059 13.294V11.9885C14.3059 11.695 14.544 11.4569 14.8375 11.4569C14.8591 11.4569 14.8802 11.4584 14.9011 11.4607L14.904 11.461C15.4814 11.5388 16.0649 11.6112 16.6549 11.6774C18.2515 11.8568 19.8916 11.994 21.5675 12.0839C21.9477 12.1043 22.2946 12.308 22.498 12.6302C22.7011 12.9525 22.7355 13.3531 22.5901 13.705L17.5474 25.9074C17.5306 25.9494 17.5211 25.9952 17.5211 26.0432C17.5211 26.2427 17.6829 26.4046 17.8827 26.4046C17.8932 26.4046 17.9034 26.4041 17.9136 26.4032C18.7147 26.332 19.5209 26.2715 20.3301 26.22C20.9272 26.1822 21.526 26.1507 22.1256 26.1243V26.1246C22.133 26.1243 22.1401 26.1241 22.1475 26.1241C22.441 26.1241 22.6791 26.3621 22.6791 26.6557V27.9455C22.6791 28.2309 22.4538 28.4638 22.1714 28.4763V28.4766C21.5563 28.5041 20.9424 28.5376 20.3301 28.5774C18.7418 28.6807 17.1651 28.8192 15.6178 29.0015C15.5718 29.007 15.5257 29.0096 15.4802 29.0096C15.1152 29.0096 14.7675 28.8392 14.544 28.5444C14.2927 28.212 14.2357 27.7717 14.3947 27.3866L19.6011 14.7876V14.7874ZM11.8562 34.5686C11.8562 34.8325 11.6639 35.0516 11.4119 35.0931C10.9836 35.1712 10.5597 35.2526 10.1404 35.3368V35.3366C10.1074 35.343 10.0735 35.3463 10.0388 35.3463C9.74526 35.3463 9.50724 35.1083 9.50724 34.8147V11.1855C9.50724 10.8921 9.74526 10.6541 10.0388 10.6541C10.0744 10.6541 10.1091 10.6574 10.1428 10.6641C10.5633 10.749 10.9883 10.8304 11.4178 10.909C11.667 10.9529 11.8562 11.1705 11.8562 11.4323V34.5686ZM25.1298 13.388C25.1298 13.0759 25.2539 12.7766 25.4751 12.5562C25.6963 12.336 25.991 12.2097 26.3081 12.2135L26.4528 12.2137C27.6145 12.2137 28.7756 12.191 29.9292 12.1473C30.527 12.1245 31.1217 12.0946 31.7138 12.0597C31.7247 12.059 31.7356 12.0588 31.7466 12.0588C32.0401 12.0588 32.2781 12.2968 32.2781 12.5904V13.8804C32.2781 14.1652 32.0541 14.3977 31.7724 14.4113C31.1609 14.4454 30.546 14.4725 29.9292 14.4953C29.2317 14.5211 28.5326 14.5415 27.8318 14.5525L27.8316 14.5522C27.6358 14.5567 27.4785 14.7167 27.4785 14.9134V17.6112C27.4785 17.8108 27.6403 17.9726 27.8399 17.9726H31.7466C32.0401 17.9726 32.2781 18.2106 32.2781 18.5042V19.79C32.2781 20.0835 32.0401 20.3215 31.7466 20.3215H27.8399C27.6403 20.3215 27.4785 20.4834 27.4785 20.683V25.6732C27.4785 25.8713 27.638 26.0322 27.8354 26.0349C28.5367 26.0453 29.2341 26.0648 29.9292 26.0892C30.5472 26.1108 31.1618 26.139 31.7736 26.1723V26.172C32.0546 26.186 32.2781 26.4184 32.2781 26.7029V27.9927C32.2781 28.2862 32.0401 28.524 31.7466 28.524C31.7366 28.524 31.7266 28.5238 31.7167 28.5233L31.7169 28.5236C31.1231 28.4908 30.5268 28.4647 29.9292 28.4424C28.7754 28.3994 27.6161 28.374 26.4528 28.374H26.3043C25.6554 28.374 25.1298 27.8479 25.1298 27.1996V13.388ZM52.4633 0.222073C52.1851 0.0130007 51.8232 -0.0532097 51.4898 0.0440887C44.2893 2.1341 35.6314 3.23903 26.4528 3.23903C17.2745 3.23903 8.61684 2.1341 1.41581 0.0440887C1.08144 -0.053447 0.72072 0.0130007 0.442114 0.222073C0.163746 0.431146 0 0.759113 0 1.10725V44.8927C0 45.2408 0.163746 45.5688 0.442114 45.7779C0.72072 45.9877 1.08144 46.0532 1.41581 45.9559C8.61636 43.8658 17.274 42.7612 26.4528 42.7612C35.6314 42.7612 44.2888 43.8658 51.4898 45.9559C51.5911 45.9855 51.6951 46 51.7983 46C52.0356 46 52.2694 45.9238 52.4633 45.7779C52.7416 45.5688 52.9056 45.2408 52.9056 44.8927V1.10725C52.9056 0.759113 52.7416 0.431146 52.4633 0.222073Z"
    fill="#932576"
  ></path>
</svg>

